<mxfile host="app.diagrams.net" agent="Mozilla/5.0 (Windows NT 10.0; Win64; x64) AppleWebKit/537.36 (KHTML, like Gecko) Chrome/130.0.0.0 Safari/537.36 Edg/130.0.0.0" version="24.8.4">
  <diagram name="Página-1" id="3igpvBi5yo4kqvdgGYUE">
    <mxGraphModel dx="6555" dy="3406" grid="1" gridSize="10" guides="1" tooltips="1" connect="1" arrows="1" fold="1" page="1" pageScale="1" pageWidth="827" pageHeight="1169" math="0" shadow="0">
      <root>
        <mxCell id="0" />
        <mxCell id="1" parent="0" />
        <mxCell id="igJaX2ub25d0kCpzRuSo-1" value="" style="rounded=0;whiteSpace=wrap;html=1;" vertex="1" parent="1">
          <mxGeometry x="-210" y="-792" width="1600" height="1220" as="geometry" />
        </mxCell>
        <mxCell id="igJaX2ub25d0kCpzRuSo-2" value="" style="rounded=0;whiteSpace=wrap;html=1;" vertex="1" parent="1">
          <mxGeometry x="-1000" y="-792" width="790" height="1220" as="geometry" />
        </mxCell>
        <mxCell id="igJaX2ub25d0kCpzRuSo-3" value="" style="rounded=0;whiteSpace=wrap;html=1;" vertex="1" parent="1">
          <mxGeometry x="-2120" y="-792" width="1180" height="1220" as="geometry" />
        </mxCell>
        <mxCell id="igJaX2ub25d0kCpzRuSo-4" value="&lt;b&gt;&lt;font style=&quot;font-size: 20px;&quot;&gt;APOLLO&lt;/font&gt;&lt;/b&gt;" style="text;html=1;align=center;verticalAlign=middle;whiteSpace=wrap;rounded=0;strokeColor=default;" vertex="1" parent="1">
          <mxGeometry x="-2120" y="-792" width="1180" height="40" as="geometry" />
        </mxCell>
        <mxCell id="igJaX2ub25d0kCpzRuSo-5" value="&lt;b&gt;&lt;font style=&quot;font-size: 20px;&quot;&gt;LSconductor&lt;/font&gt;&lt;/b&gt;" style="text;html=1;align=center;verticalAlign=middle;whiteSpace=wrap;rounded=0;strokeColor=default;" vertex="1" parent="1">
          <mxGeometry x="-940" y="-792" width="730" height="40" as="geometry" />
        </mxCell>
        <mxCell id="igJaX2ub25d0kCpzRuSo-6" value="&lt;b&gt;&lt;font style=&quot;font-size: 20px;&quot;&gt;LSAria&lt;/font&gt;&lt;/b&gt;" style="text;html=1;align=center;verticalAlign=middle;whiteSpace=wrap;rounded=0;strokeColor=default;" vertex="1" parent="1">
          <mxGeometry x="-210" y="-792" width="1600" height="40" as="geometry" />
        </mxCell>
        <mxCell id="igJaX2ub25d0kCpzRuSo-7" value="Cliente requisita&lt;span style=&quot;background-color: rgb(0, 204, 0);&quot;&gt; &lt;/span&gt;serviço" style="ellipse;whiteSpace=wrap;html=1;fillColor=#d5e8d4;strokeColor=#82b366;" vertex="1" parent="1">
          <mxGeometry x="-2090" y="-742" width="80" height="60" as="geometry" />
        </mxCell>
        <mxCell id="igJaX2ub25d0kCpzRuSo-8" value="" style="edgeStyle=orthogonalEdgeStyle;rounded=0;orthogonalLoop=1;jettySize=auto;html=1;" edge="1" parent="1" source="igJaX2ub25d0kCpzRuSo-9" target="igJaX2ub25d0kCpzRuSo-10">
          <mxGeometry relative="1" as="geometry" />
        </mxCell>
        <mxCell id="igJaX2ub25d0kCpzRuSo-9" value="&lt;font style=&quot;font-size: 12px;&quot;&gt;Cadastro da máquina no sistema&lt;/font&gt;" style="shape=parallelogram;perimeter=parallelogramPerimeter;whiteSpace=wrap;html=1;fixedSize=1;" vertex="1" parent="1">
          <mxGeometry x="-2101" y="-634" width="170" height="60" as="geometry" />
        </mxCell>
        <mxCell id="igJaX2ub25d0kCpzRuSo-10" value="&lt;font style=&quot;font-size: 12px;&quot;&gt;Abertura da OS&lt;/font&gt;" style="shape=parallelogram;perimeter=parallelogramPerimeter;whiteSpace=wrap;html=1;fixedSize=1;" vertex="1" parent="1">
          <mxGeometry x="-1911" y="-634" width="120" height="60" as="geometry" />
        </mxCell>
        <mxCell id="igJaX2ub25d0kCpzRuSo-11" value="" style="edgeStyle=orthogonalEdgeStyle;rounded=0;orthogonalLoop=1;jettySize=auto;html=1;" edge="1" parent="1" source="igJaX2ub25d0kCpzRuSo-12" target="igJaX2ub25d0kCpzRuSo-14">
          <mxGeometry relative="1" as="geometry" />
        </mxCell>
        <mxCell id="igJaX2ub25d0kCpzRuSo-12" value="&lt;font style=&quot;font-size: 12px;&quot;&gt;Parametrização da OS&lt;/font&gt;" style="shape=parallelogram;perimeter=parallelogramPerimeter;whiteSpace=wrap;html=1;fixedSize=1;" vertex="1" parent="1">
          <mxGeometry x="-1770" y="-634" width="160" height="60" as="geometry" />
        </mxCell>
        <mxCell id="igJaX2ub25d0kCpzRuSo-13" value="" style="edgeStyle=orthogonalEdgeStyle;rounded=0;orthogonalLoop=1;jettySize=auto;html=1;entryX=0;entryY=0;entryDx=0;entryDy=31;entryPerimeter=0;" edge="1" parent="1" source="igJaX2ub25d0kCpzRuSo-14" target="igJaX2ub25d0kCpzRuSo-176">
          <mxGeometry relative="1" as="geometry" />
        </mxCell>
        <mxCell id="igJaX2ub25d0kCpzRuSo-14" value="Inicia integração com LS" style="shape=parallelogram;perimeter=parallelogramPerimeter;whiteSpace=wrap;html=1;fixedSize=1;" vertex="1" parent="1">
          <mxGeometry x="-1601" y="-634" width="181" height="60" as="geometry" />
        </mxCell>
        <mxCell id="igJaX2ub25d0kCpzRuSo-15" value="" style="edgeStyle=orthogonalEdgeStyle;rounded=0;orthogonalLoop=1;jettySize=auto;html=1;" edge="1" parent="1" source="igJaX2ub25d0kCpzRuSo-16" target="igJaX2ub25d0kCpzRuSo-7">
          <mxGeometry relative="1" as="geometry" />
        </mxCell>
        <mxCell id="igJaX2ub25d0kCpzRuSo-16" value="Cliente" style="shape=umlActor;verticalLabelPosition=bottom;verticalAlign=top;html=1;outlineConnect=0;" vertex="1" parent="1">
          <mxGeometry x="-2178" y="-752" width="30" height="60" as="geometry" />
        </mxCell>
        <mxCell id="igJaX2ub25d0kCpzRuSo-17" value="" style="edgeStyle=orthogonalEdgeStyle;rounded=0;orthogonalLoop=1;jettySize=auto;html=1;" edge="1" parent="1" source="igJaX2ub25d0kCpzRuSo-18" target="igJaX2ub25d0kCpzRuSo-9">
          <mxGeometry relative="1" as="geometry" />
        </mxCell>
        <mxCell id="igJaX2ub25d0kCpzRuSo-18" value="Técnico" style="shape=umlActor;verticalLabelPosition=bottom;verticalAlign=top;html=1;outlineConnect=0;" vertex="1" parent="1">
          <mxGeometry x="-2178" y="-642" width="30" height="60" as="geometry" />
        </mxCell>
        <mxCell id="igJaX2ub25d0kCpzRuSo-19" value="" style="edgeStyle=orthogonalEdgeStyle;rounded=0;orthogonalLoop=1;jettySize=auto;html=1;exitX=0;exitY=0;exitDx=130;exitDy=31;exitPerimeter=0;" edge="1" parent="1" source="igJaX2ub25d0kCpzRuSo-176" target="igJaX2ub25d0kCpzRuSo-20">
          <mxGeometry relative="1" as="geometry" />
        </mxCell>
        <mxCell id="igJaX2ub25d0kCpzRuSo-20" value="Existe orçamento vinculado a OS" style="rhombus;whiteSpace=wrap;html=1;" vertex="1" parent="1">
          <mxGeometry x="-1200" y="-654" width="130" height="100" as="geometry" />
        </mxCell>
        <mxCell id="igJaX2ub25d0kCpzRuSo-21" value="" style="endArrow=classic;html=1;rounded=0;exitX=1;exitY=0.5;exitDx=0;exitDy=0;entryX=0;entryY=0.5;entryDx=0;entryDy=0;" edge="1" parent="1" source="igJaX2ub25d0kCpzRuSo-10" target="igJaX2ub25d0kCpzRuSo-12">
          <mxGeometry width="50" height="50" relative="1" as="geometry">
            <mxPoint x="-1420" y="-472" as="sourcePoint" />
            <mxPoint x="-1370" y="-522" as="targetPoint" />
            <Array as="points" />
          </mxGeometry>
        </mxCell>
        <mxCell id="igJaX2ub25d0kCpzRuSo-22" value="&lt;b&gt;PAYLOAD&lt;/b&gt;&lt;div&gt;&lt;br&gt;&lt;/div&gt;&lt;div&gt;Faturamento&lt;/div&gt;&lt;div&gt;Realizado&lt;/div&gt;" style="shape=note;whiteSpace=wrap;html=1;backgroundOutline=1;darkOpacity=0.05;" vertex="1" parent="1">
          <mxGeometry x="-990" y="-726" width="90" height="92" as="geometry" />
        </mxCell>
        <mxCell id="igJaX2ub25d0kCpzRuSo-23" style="edgeStyle=orthogonalEdgeStyle;rounded=0;orthogonalLoop=1;jettySize=auto;html=1;exitX=0;exitY=0;exitDx=100;exitDy=65;exitPerimeter=0;" edge="1" parent="1" source="igJaX2ub25d0kCpzRuSo-24">
          <mxGeometry relative="1" as="geometry">
            <mxPoint x="-790" y="-612" as="targetPoint" />
            <Array as="points">
              <mxPoint x="-890" y="-502" />
              <mxPoint x="-870" y="-502" />
              <mxPoint x="-870" y="-612" />
            </Array>
          </mxGeometry>
        </mxCell>
        <mxCell id="igJaX2ub25d0kCpzRuSo-24" value="&lt;b&gt;PAYLOAD&lt;/b&gt;&lt;div&gt;&lt;br&gt;&lt;/div&gt;&lt;div&gt;&lt;br&gt;&lt;/div&gt;&lt;div&gt;Faturamento Orçado&lt;/div&gt;" style="shape=note;whiteSpace=wrap;html=1;backgroundOutline=1;darkOpacity=0.05;" vertex="1" parent="1">
          <mxGeometry x="-990" y="-552" width="100" height="100" as="geometry" />
        </mxCell>
        <mxCell id="igJaX2ub25d0kCpzRuSo-25" style="edgeStyle=orthogonalEdgeStyle;rounded=0;orthogonalLoop=1;jettySize=auto;html=1;exitX=1;exitY=0;exitDx=0;exitDy=0;entryX=0;entryY=0.5;entryDx=0;entryDy=0;entryPerimeter=0;" edge="1" parent="1" source="igJaX2ub25d0kCpzRuSo-20" target="igJaX2ub25d0kCpzRuSo-22">
          <mxGeometry relative="1" as="geometry" />
        </mxCell>
        <mxCell id="igJaX2ub25d0kCpzRuSo-26" value="NAO" style="edgeLabel;html=1;align=center;verticalAlign=middle;resizable=0;points=[];" vertex="1" connectable="0" parent="igJaX2ub25d0kCpzRuSo-25">
          <mxGeometry x="0.0395" relative="1" as="geometry">
            <mxPoint as="offset" />
          </mxGeometry>
        </mxCell>
        <mxCell id="igJaX2ub25d0kCpzRuSo-27" style="edgeStyle=orthogonalEdgeStyle;rounded=0;orthogonalLoop=1;jettySize=auto;html=1;exitX=1;exitY=1;exitDx=0;exitDy=0;entryX=0;entryY=0.5;entryDx=0;entryDy=0;entryPerimeter=0;" edge="1" parent="1" source="igJaX2ub25d0kCpzRuSo-20" target="igJaX2ub25d0kCpzRuSo-24">
          <mxGeometry relative="1" as="geometry" />
        </mxCell>
        <mxCell id="igJaX2ub25d0kCpzRuSo-28" value="SIM" style="edgeLabel;html=1;align=center;verticalAlign=middle;resizable=0;points=[];" vertex="1" connectable="0" parent="igJaX2ub25d0kCpzRuSo-27">
          <mxGeometry x="0.5426" y="2" relative="1" as="geometry">
            <mxPoint as="offset" />
          </mxGeometry>
        </mxCell>
        <mxCell id="igJaX2ub25d0kCpzRuSo-29" value="" style="edgeStyle=orthogonalEdgeStyle;rounded=0;orthogonalLoop=1;jettySize=auto;html=1;" edge="1" parent="1" source="igJaX2ub25d0kCpzRuSo-30" target="igJaX2ub25d0kCpzRuSo-33">
          <mxGeometry relative="1" as="geometry" />
        </mxCell>
        <mxCell id="igJaX2ub25d0kCpzRuSo-30" value="API" style="ellipse;shape=cloud;whiteSpace=wrap;html=1;" vertex="1" parent="1">
          <mxGeometry x="-800" y="-652" width="120" height="80" as="geometry" />
        </mxCell>
        <mxCell id="igJaX2ub25d0kCpzRuSo-31" style="edgeStyle=orthogonalEdgeStyle;rounded=0;orthogonalLoop=1;jettySize=auto;html=1;exitX=0;exitY=0;exitDx=90;exitDy=61;exitPerimeter=0;" edge="1" parent="1" source="igJaX2ub25d0kCpzRuSo-22" target="igJaX2ub25d0kCpzRuSo-30">
          <mxGeometry relative="1" as="geometry">
            <mxPoint x="-800" y="-612" as="targetPoint" />
            <Array as="points">
              <mxPoint x="-900" y="-662" />
              <mxPoint x="-870" y="-662" />
              <mxPoint x="-870" y="-612" />
            </Array>
          </mxGeometry>
        </mxCell>
        <mxCell id="igJaX2ub25d0kCpzRuSo-32" style="edgeStyle=orthogonalEdgeStyle;rounded=0;orthogonalLoop=1;jettySize=auto;html=1;exitX=1;exitY=0.5;exitDx=0;exitDy=0;entryX=0;entryY=0.5;entryDx=0;entryDy=0;" edge="1" parent="1" source="igJaX2ub25d0kCpzRuSo-33" target="igJaX2ub25d0kCpzRuSo-40">
          <mxGeometry relative="1" as="geometry" />
        </mxCell>
        <mxCell id="igJaX2ub25d0kCpzRuSo-33" value="Chamado aberto no LS&amp;nbsp;" style="shape=parallelogram;perimeter=parallelogramPerimeter;whiteSpace=wrap;html=1;fixedSize=1;" vertex="1" parent="1">
          <mxGeometry x="-640" y="-642" width="160" height="60" as="geometry" />
        </mxCell>
        <mxCell id="igJaX2ub25d0kCpzRuSo-34" style="edgeStyle=orthogonalEdgeStyle;rounded=0;orthogonalLoop=1;jettySize=auto;html=1;exitX=0.5;exitY=1;exitDx=0;exitDy=0;entryX=1;entryY=0.5;entryDx=0;entryDy=0;" edge="1" parent="1" source="igJaX2ub25d0kCpzRuSo-35" target="igJaX2ub25d0kCpzRuSo-44">
          <mxGeometry relative="1" as="geometry">
            <Array as="points">
              <mxPoint x="-260" y="-342" />
            </Array>
          </mxGeometry>
        </mxCell>
        <mxCell id="igJaX2ub25d0kCpzRuSo-35" value="Define o &quot;Grupo&quot; no chamado: elétrico ou Mecânico" style="shape=parallelogram;perimeter=parallelogramPerimeter;whiteSpace=wrap;html=1;fixedSize=1;" vertex="1" parent="1">
          <mxGeometry x="-360" y="-482" width="200" height="60" as="geometry" />
        </mxCell>
        <mxCell id="igJaX2ub25d0kCpzRuSo-36" style="edgeStyle=orthogonalEdgeStyle;rounded=0;orthogonalLoop=1;jettySize=auto;html=1;exitX=0.5;exitY=1;exitDx=0;exitDy=0;entryX=0.5;entryY=0;entryDx=0;entryDy=0;" edge="1" parent="1" source="igJaX2ub25d0kCpzRuSo-40" target="igJaX2ub25d0kCpzRuSo-35">
          <mxGeometry relative="1" as="geometry">
            <Array as="points">
              <mxPoint x="-260" y="-572" />
            </Array>
          </mxGeometry>
        </mxCell>
        <mxCell id="igJaX2ub25d0kCpzRuSo-37" value="NÃO" style="edgeLabel;html=1;align=center;verticalAlign=middle;resizable=0;points=[];" vertex="1" connectable="0" parent="igJaX2ub25d0kCpzRuSo-36">
          <mxGeometry x="-0.2839" y="-3" relative="1" as="geometry">
            <mxPoint x="28" as="offset" />
          </mxGeometry>
        </mxCell>
        <mxCell id="igJaX2ub25d0kCpzRuSo-38" style="edgeStyle=orthogonalEdgeStyle;rounded=0;orthogonalLoop=1;jettySize=auto;html=1;exitX=0.5;exitY=1;exitDx=0;exitDy=0;entryX=0.5;entryY=0;entryDx=0;entryDy=0;" edge="1" parent="1" source="igJaX2ub25d0kCpzRuSo-40" target="igJaX2ub25d0kCpzRuSo-42">
          <mxGeometry relative="1" as="geometry">
            <Array as="points">
              <mxPoint x="-490" y="-572" />
            </Array>
            <mxPoint x="-481" y="-512" as="targetPoint" />
          </mxGeometry>
        </mxCell>
        <mxCell id="igJaX2ub25d0kCpzRuSo-39" value="SIM" style="edgeLabel;html=1;align=center;verticalAlign=middle;resizable=0;points=[];" vertex="1" connectable="0" parent="igJaX2ub25d0kCpzRuSo-38">
          <mxGeometry x="0.3031" relative="1" as="geometry">
            <mxPoint y="-12" as="offset" />
          </mxGeometry>
        </mxCell>
        <mxCell id="igJaX2ub25d0kCpzRuSo-40" value="Entrega Técnica?" style="rhombus;whiteSpace=wrap;html=1;" vertex="1" parent="1">
          <mxGeometry x="-400" y="-652" width="80" height="80" as="geometry" />
        </mxCell>
        <mxCell id="igJaX2ub25d0kCpzRuSo-41" style="edgeStyle=orthogonalEdgeStyle;rounded=0;orthogonalLoop=1;jettySize=auto;html=1;exitX=0.5;exitY=1;exitDx=0;exitDy=0;entryX=0;entryY=0.5;entryDx=0;entryDy=0;" edge="1" parent="1" source="igJaX2ub25d0kCpzRuSo-42" target="igJaX2ub25d0kCpzRuSo-44">
          <mxGeometry relative="1" as="geometry">
            <Array as="points">
              <mxPoint x="-490" y="-342" />
            </Array>
          </mxGeometry>
        </mxCell>
        <mxCell id="igJaX2ub25d0kCpzRuSo-42" value="Define o &quot;Tipo de Serviço&quot; como Entrega Técnica" style="shape=parallelogram;perimeter=parallelogramPerimeter;whiteSpace=wrap;html=1;fixedSize=1;" vertex="1" parent="1">
          <mxGeometry x="-580" y="-482" width="180" height="60" as="geometry" />
        </mxCell>
        <mxCell id="igJaX2ub25d0kCpzRuSo-43" value="" style="edgeStyle=orthogonalEdgeStyle;rounded=0;orthogonalLoop=1;jettySize=auto;html=1;" edge="1" parent="1" source="igJaX2ub25d0kCpzRuSo-44" target="igJaX2ub25d0kCpzRuSo-46">
          <mxGeometry relative="1" as="geometry" />
        </mxCell>
        <mxCell id="igJaX2ub25d0kCpzRuSo-44" value="Cria ação externa" style="shape=parallelogram;perimeter=parallelogramPerimeter;whiteSpace=wrap;html=1;fixedSize=1;" vertex="1" parent="1">
          <mxGeometry x="-440" y="-372" width="130" height="60" as="geometry" />
        </mxCell>
        <mxCell id="igJaX2ub25d0kCpzRuSo-45" style="edgeStyle=orthogonalEdgeStyle;rounded=0;orthogonalLoop=1;jettySize=auto;html=1;exitX=1;exitY=0.5;exitDx=0;exitDy=0;entryX=0;entryY=0.5;entryDx=0;entryDy=0;" edge="1" parent="1" source="igJaX2ub25d0kCpzRuSo-46" target="igJaX2ub25d0kCpzRuSo-48">
          <mxGeometry relative="1" as="geometry">
            <Array as="points">
              <mxPoint x="-120" y="-197" />
              <mxPoint x="-120" y="-692" />
            </Array>
          </mxGeometry>
        </mxCell>
        <mxCell id="igJaX2ub25d0kCpzRuSo-46" value="Direciona chamado para o Técnico" style="shape=parallelogram;perimeter=parallelogramPerimeter;whiteSpace=wrap;html=1;fixedSize=1;" vertex="1" parent="1">
          <mxGeometry x="-470" y="-232" width="180" height="70" as="geometry" />
        </mxCell>
        <mxCell id="igJaX2ub25d0kCpzRuSo-47" value="" style="edgeStyle=orthogonalEdgeStyle;rounded=0;orthogonalLoop=1;jettySize=auto;html=1;" edge="1" parent="1" source="igJaX2ub25d0kCpzRuSo-48" target="igJaX2ub25d0kCpzRuSo-51">
          <mxGeometry relative="1" as="geometry" />
        </mxCell>
        <mxCell id="igJaX2ub25d0kCpzRuSo-48" value="Chamado na lista de tarefas do técnico" style="rounded=0;whiteSpace=wrap;html=1;" vertex="1" parent="1">
          <mxGeometry x="-90" y="-722" width="120" height="60" as="geometry" />
        </mxCell>
        <mxCell id="igJaX2ub25d0kCpzRuSo-49" value="" style="edgeStyle=orthogonalEdgeStyle;rounded=0;orthogonalLoop=1;jettySize=auto;html=1;" edge="1" parent="1" source="igJaX2ub25d0kCpzRuSo-51">
          <mxGeometry relative="1" as="geometry">
            <mxPoint x="340" y="-692" as="targetPoint" />
          </mxGeometry>
        </mxCell>
        <mxCell id="igJaX2ub25d0kCpzRuSo-50" value="Deslocamento até o cliente" style="edgeLabel;html=1;align=center;verticalAlign=middle;resizable=0;points=[];" vertex="1" connectable="0" parent="igJaX2ub25d0kCpzRuSo-49">
          <mxGeometry x="0.5661" y="2" relative="1" as="geometry">
            <mxPoint x="53" y="2" as="offset" />
          </mxGeometry>
        </mxCell>
        <mxCell id="igJaX2ub25d0kCpzRuSo-51" value="Técnico preenche&lt;div&gt;&amp;nbsp;o Inicio de deslocamento&lt;/div&gt;" style="shape=parallelogram;perimeter=parallelogramPerimeter;whiteSpace=wrap;html=1;fixedSize=1;" vertex="1" parent="1">
          <mxGeometry x="100" y="-722" width="180" height="60" as="geometry" />
        </mxCell>
        <mxCell id="igJaX2ub25d0kCpzRuSo-52" style="edgeStyle=orthogonalEdgeStyle;rounded=0;orthogonalLoop=1;jettySize=auto;html=1;exitX=0.5;exitY=1;exitDx=0;exitDy=0;entryX=0;entryY=0.5;entryDx=0;entryDy=0;" edge="1" parent="1" source="igJaX2ub25d0kCpzRuSo-53" target="igJaX2ub25d0kCpzRuSo-59">
          <mxGeometry relative="1" as="geometry">
            <Array as="points">
              <mxPoint x="815" y="-642" />
              <mxPoint x="-40" y="-642" />
              <mxPoint x="-40" y="-567" />
            </Array>
          </mxGeometry>
        </mxCell>
        <mxCell id="igJaX2ub25d0kCpzRuSo-53" value="Técnico registra o Inicio da atividade" style="shape=parallelogram;perimeter=parallelogramPerimeter;whiteSpace=wrap;html=1;fixedSize=1;" vertex="1" parent="1">
          <mxGeometry x="720" y="-722" width="190" height="60" as="geometry" />
        </mxCell>
        <mxCell id="igJaX2ub25d0kCpzRuSo-54" style="edgeStyle=orthogonalEdgeStyle;rounded=0;orthogonalLoop=1;jettySize=auto;html=1;exitX=1;exitY=0.5;exitDx=0;exitDy=0;entryX=0;entryY=0.5;entryDx=0;entryDy=0;" edge="1" parent="1" source="igJaX2ub25d0kCpzRuSo-55" target="igJaX2ub25d0kCpzRuSo-53">
          <mxGeometry relative="1" as="geometry" />
        </mxCell>
        <mxCell id="igJaX2ub25d0kCpzRuSo-55" value="Técnico preenche FIm de deslocamento" style="shape=parallelogram;perimeter=parallelogramPerimeter;whiteSpace=wrap;html=1;fixedSize=1;" vertex="1" parent="1">
          <mxGeometry x="480" y="-722" width="190" height="60" as="geometry" />
        </mxCell>
        <mxCell id="igJaX2ub25d0kCpzRuSo-56" value="" style="endArrow=classic;html=1;rounded=0;entryX=0;entryY=0.5;entryDx=0;entryDy=0;" edge="1" parent="1" target="igJaX2ub25d0kCpzRuSo-55">
          <mxGeometry width="50" height="50" relative="1" as="geometry">
            <mxPoint x="450" y="-692" as="sourcePoint" />
            <mxPoint x="510" y="-482" as="targetPoint" />
            <Array as="points">
              <mxPoint x="470" y="-692" />
            </Array>
          </mxGeometry>
        </mxCell>
        <mxCell id="igJaX2ub25d0kCpzRuSo-57" style="edgeStyle=orthogonalEdgeStyle;rounded=0;orthogonalLoop=1;jettySize=auto;html=1;exitX=0.5;exitY=1;exitDx=0;exitDy=0;" edge="1" parent="1" source="igJaX2ub25d0kCpzRuSo-53" target="igJaX2ub25d0kCpzRuSo-53">
          <mxGeometry relative="1" as="geometry" />
        </mxCell>
        <mxCell id="igJaX2ub25d0kCpzRuSo-58" style="edgeStyle=orthogonalEdgeStyle;rounded=0;orthogonalLoop=1;jettySize=auto;html=1;exitX=1;exitY=0.5;exitDx=0;exitDy=0;entryX=0;entryY=0.5;entryDx=0;entryDy=0;" edge="1" parent="1" source="igJaX2ub25d0kCpzRuSo-59" target="igJaX2ub25d0kCpzRuSo-61">
          <mxGeometry relative="1" as="geometry" />
        </mxCell>
        <mxCell id="igJaX2ub25d0kCpzRuSo-59" value="Ajusta as informações&amp;nbsp;&lt;div&gt;que faltam na OS&lt;div&gt;&amp;nbsp;(Boletim externo)&lt;/div&gt;&lt;/div&gt;" style="shape=parallelogram;perimeter=parallelogramPerimeter;whiteSpace=wrap;html=1;fixedSize=1;" vertex="1" parent="1">
          <mxGeometry x="-20" y="-602" width="180" height="70" as="geometry" />
        </mxCell>
        <mxCell id="igJaX2ub25d0kCpzRuSo-60" value="" style="edgeStyle=orthogonalEdgeStyle;rounded=0;orthogonalLoop=1;jettySize=auto;html=1;" edge="1" parent="1" source="igJaX2ub25d0kCpzRuSo-61" target="igJaX2ub25d0kCpzRuSo-63">
          <mxGeometry relative="1" as="geometry" />
        </mxCell>
        <mxCell id="igJaX2ub25d0kCpzRuSo-61" value="Preenche Análise de Risco&amp;nbsp;&lt;span style=&quot;background-color: initial;&quot;&gt;(JSA)&lt;/span&gt;" style="shape=parallelogram;perimeter=parallelogramPerimeter;whiteSpace=wrap;html=1;fixedSize=1;" vertex="1" parent="1">
          <mxGeometry x="230" y="-602" width="150" height="70" as="geometry" />
        </mxCell>
        <mxCell id="igJaX2ub25d0kCpzRuSo-62" style="edgeStyle=orthogonalEdgeStyle;rounded=0;orthogonalLoop=1;jettySize=auto;html=1;exitX=1;exitY=0.5;exitDx=0;exitDy=0;entryX=0.5;entryY=0;entryDx=0;entryDy=0;" edge="1" parent="1" source="igJaX2ub25d0kCpzRuSo-63" target="igJaX2ub25d0kCpzRuSo-68">
          <mxGeometry relative="1" as="geometry">
            <Array as="points">
              <mxPoint x="820" y="-567" />
            </Array>
          </mxGeometry>
        </mxCell>
        <mxCell id="igJaX2ub25d0kCpzRuSo-63" value="Técnico realiza&amp;nbsp;&lt;div&gt;o atividade&lt;/div&gt;" style="shape=parallelogram;perimeter=parallelogramPerimeter;whiteSpace=wrap;html=1;fixedSize=1;" vertex="1" parent="1">
          <mxGeometry x="460" y="-602" width="150" height="70" as="geometry" />
        </mxCell>
        <mxCell id="igJaX2ub25d0kCpzRuSo-64" style="edgeStyle=orthogonalEdgeStyle;rounded=0;orthogonalLoop=1;jettySize=auto;html=1;exitX=0;exitY=0.5;exitDx=0;exitDy=0;entryX=1;entryY=0.5;entryDx=0;entryDy=0;" edge="1" parent="1" source="igJaX2ub25d0kCpzRuSo-68" target="igJaX2ub25d0kCpzRuSo-70">
          <mxGeometry relative="1" as="geometry" />
        </mxCell>
        <mxCell id="igJaX2ub25d0kCpzRuSo-65" value="SIM" style="edgeLabel;html=1;align=center;verticalAlign=middle;resizable=0;points=[];" vertex="1" connectable="0" parent="igJaX2ub25d0kCpzRuSo-64">
          <mxGeometry x="-0.1231" y="-2" relative="1" as="geometry">
            <mxPoint as="offset" />
          </mxGeometry>
        </mxCell>
        <mxCell id="igJaX2ub25d0kCpzRuSo-66" value="" style="edgeStyle=orthogonalEdgeStyle;rounded=0;orthogonalLoop=1;jettySize=auto;html=1;" edge="1" parent="1" source="igJaX2ub25d0kCpzRuSo-68" target="igJaX2ub25d0kCpzRuSo-79">
          <mxGeometry relative="1" as="geometry">
            <Array as="points">
              <mxPoint x="820" y="-309" />
            </Array>
          </mxGeometry>
        </mxCell>
        <mxCell id="igJaX2ub25d0kCpzRuSo-67" value="NÃO" style="edgeLabel;html=1;align=center;verticalAlign=middle;resizable=0;points=[];" vertex="1" connectable="0" parent="igJaX2ub25d0kCpzRuSo-66">
          <mxGeometry x="-0.6756" y="-1" relative="1" as="geometry">
            <mxPoint as="offset" />
          </mxGeometry>
        </mxCell>
        <mxCell id="igJaX2ub25d0kCpzRuSo-68" value="Intervalo&lt;div&gt;do&lt;br&gt;&lt;div&gt;Almoço?&lt;/div&gt;&lt;/div&gt;" style="rhombus;whiteSpace=wrap;html=1;" vertex="1" parent="1">
          <mxGeometry x="770" y="-482" width="100" height="90" as="geometry" />
        </mxCell>
        <mxCell id="igJaX2ub25d0kCpzRuSo-69" value="" style="edgeStyle=orthogonalEdgeStyle;rounded=0;orthogonalLoop=1;jettySize=auto;html=1;" edge="1" parent="1" source="igJaX2ub25d0kCpzRuSo-70" target="igJaX2ub25d0kCpzRuSo-73">
          <mxGeometry relative="1" as="geometry" />
        </mxCell>
        <mxCell id="igJaX2ub25d0kCpzRuSo-70" value="Registra fim da atividade" style="shape=parallelogram;perimeter=parallelogramPerimeter;whiteSpace=wrap;html=1;fixedSize=1;" vertex="1" parent="1">
          <mxGeometry x="520" y="-469.5" width="130" height="65" as="geometry" />
        </mxCell>
        <mxCell id="igJaX2ub25d0kCpzRuSo-71" value="" style="edgeStyle=orthogonalEdgeStyle;rounded=0;orthogonalLoop=1;jettySize=auto;html=1;" edge="1" parent="1" source="igJaX2ub25d0kCpzRuSo-73" target="igJaX2ub25d0kCpzRuSo-75">
          <mxGeometry relative="1" as="geometry" />
        </mxCell>
        <mxCell id="igJaX2ub25d0kCpzRuSo-72" value="Intervalo" style="edgeLabel;html=1;align=center;verticalAlign=middle;resizable=0;points=[];" vertex="1" connectable="0" parent="igJaX2ub25d0kCpzRuSo-71">
          <mxGeometry x="-0.02" y="-4" relative="1" as="geometry">
            <mxPoint as="offset" />
          </mxGeometry>
        </mxCell>
        <mxCell id="igJaX2ub25d0kCpzRuSo-73" value="Registra Início do intervalo" style="shape=parallelogram;perimeter=parallelogramPerimeter;whiteSpace=wrap;html=1;fixedSize=1;" vertex="1" parent="1">
          <mxGeometry x="320" y="-469.5" width="130" height="65" as="geometry" />
        </mxCell>
        <mxCell id="igJaX2ub25d0kCpzRuSo-74" value="" style="edgeStyle=orthogonalEdgeStyle;rounded=0;orthogonalLoop=1;jettySize=auto;html=1;" edge="1" parent="1" source="igJaX2ub25d0kCpzRuSo-75" target="igJaX2ub25d0kCpzRuSo-77">
          <mxGeometry relative="1" as="geometry" />
        </mxCell>
        <mxCell id="igJaX2ub25d0kCpzRuSo-75" value="Registra fim do intervalo" style="shape=parallelogram;perimeter=parallelogramPerimeter;whiteSpace=wrap;html=1;fixedSize=1;" vertex="1" parent="1">
          <mxGeometry x="100" y="-469.5" width="130" height="65" as="geometry" />
        </mxCell>
        <mxCell id="igJaX2ub25d0kCpzRuSo-76" style="edgeStyle=orthogonalEdgeStyle;rounded=0;orthogonalLoop=1;jettySize=auto;html=1;exitX=0.5;exitY=1;exitDx=0;exitDy=0;entryX=0;entryY=0.5;entryDx=0;entryDy=0;" edge="1" parent="1" source="igJaX2ub25d0kCpzRuSo-77" target="igJaX2ub25d0kCpzRuSo-79">
          <mxGeometry relative="1" as="geometry">
            <Array as="points">
              <mxPoint x="-5" y="-309" />
            </Array>
          </mxGeometry>
        </mxCell>
        <mxCell id="igJaX2ub25d0kCpzRuSo-77" value="Registra Início da atividade" style="shape=parallelogram;perimeter=parallelogramPerimeter;whiteSpace=wrap;html=1;fixedSize=1;" vertex="1" parent="1">
          <mxGeometry x="-70" y="-469.5" width="130" height="65" as="geometry" />
        </mxCell>
        <mxCell id="igJaX2ub25d0kCpzRuSo-78" style="edgeStyle=orthogonalEdgeStyle;rounded=0;orthogonalLoop=1;jettySize=auto;html=1;exitX=0.5;exitY=1;exitDx=0;exitDy=0;" edge="1" parent="1" source="igJaX2ub25d0kCpzRuSo-79" target="igJaX2ub25d0kCpzRuSo-81">
          <mxGeometry relative="1" as="geometry">
            <Array as="points">
              <mxPoint x="350" y="-262" />
              <mxPoint x="-5" y="-262" />
            </Array>
          </mxGeometry>
        </mxCell>
        <mxCell id="igJaX2ub25d0kCpzRuSo-79" value="Registra serviços executados" style="shape=parallelogram;perimeter=parallelogramPerimeter;whiteSpace=wrap;html=1;fixedSize=1;" vertex="1" parent="1">
          <mxGeometry x="280" y="-342" width="140" height="65" as="geometry" />
        </mxCell>
        <mxCell id="igJaX2ub25d0kCpzRuSo-80" style="edgeStyle=orthogonalEdgeStyle;rounded=0;orthogonalLoop=1;jettySize=auto;html=1;exitX=1;exitY=0.5;exitDx=0;exitDy=0;entryX=0;entryY=0.5;entryDx=0;entryDy=0;" edge="1" parent="1" source="igJaX2ub25d0kCpzRuSo-81" target="igJaX2ub25d0kCpzRuSo-83">
          <mxGeometry relative="1" as="geometry" />
        </mxCell>
        <mxCell id="igJaX2ub25d0kCpzRuSo-81" value="Registra testes" style="shape=parallelogram;perimeter=parallelogramPerimeter;whiteSpace=wrap;html=1;fixedSize=1;" vertex="1" parent="1">
          <mxGeometry x="-65" y="-242" width="120" height="60" as="geometry" />
        </mxCell>
        <mxCell id="igJaX2ub25d0kCpzRuSo-82" style="edgeStyle=orthogonalEdgeStyle;rounded=0;orthogonalLoop=1;jettySize=auto;html=1;exitX=1;exitY=0.5;exitDx=0;exitDy=0;" edge="1" parent="1" source="igJaX2ub25d0kCpzRuSo-83" target="igJaX2ub25d0kCpzRuSo-88">
          <mxGeometry relative="1" as="geometry" />
        </mxCell>
        <mxCell id="igJaX2ub25d0kCpzRuSo-83" value="Registras despesas" style="shape=parallelogram;perimeter=parallelogramPerimeter;whiteSpace=wrap;html=1;fixedSize=1;" vertex="1" parent="1">
          <mxGeometry x="95" y="-242" width="140" height="60" as="geometry" />
        </mxCell>
        <mxCell id="igJaX2ub25d0kCpzRuSo-84" style="edgeStyle=orthogonalEdgeStyle;rounded=0;orthogonalLoop=1;jettySize=auto;html=1;exitX=0.5;exitY=0;exitDx=0;exitDy=0;entryX=0.5;entryY=1;entryDx=0;entryDy=0;" edge="1" parent="1" source="igJaX2ub25d0kCpzRuSo-88" target="igJaX2ub25d0kCpzRuSo-89">
          <mxGeometry relative="1" as="geometry">
            <mxPoint x="990" y="-482" as="targetPoint" />
          </mxGeometry>
        </mxCell>
        <mxCell id="igJaX2ub25d0kCpzRuSo-85" value="SIM" style="edgeLabel;html=1;align=center;verticalAlign=middle;resizable=0;points=[];" vertex="1" connectable="0" parent="igJaX2ub25d0kCpzRuSo-84">
          <mxGeometry x="-0.1795" relative="1" as="geometry">
            <mxPoint as="offset" />
          </mxGeometry>
        </mxCell>
        <mxCell id="igJaX2ub25d0kCpzRuSo-86" value="" style="edgeStyle=orthogonalEdgeStyle;rounded=0;orthogonalLoop=1;jettySize=auto;html=1;" edge="1" parent="1" source="igJaX2ub25d0kCpzRuSo-88" target="igJaX2ub25d0kCpzRuSo-93">
          <mxGeometry relative="1" as="geometry" />
        </mxCell>
        <mxCell id="igJaX2ub25d0kCpzRuSo-87" value="NÃO" style="edgeLabel;html=1;align=center;verticalAlign=middle;resizable=0;points=[];" vertex="1" connectable="0" parent="igJaX2ub25d0kCpzRuSo-86">
          <mxGeometry x="0.1556" y="-1" relative="1" as="geometry">
            <mxPoint as="offset" />
          </mxGeometry>
        </mxCell>
        <mxCell id="igJaX2ub25d0kCpzRuSo-88" value="Foi&amp;nbsp;&lt;div&gt;registrado alguma&amp;nbsp;&lt;div&gt;despesa?&lt;/div&gt;&lt;/div&gt;" style="rhombus;whiteSpace=wrap;html=1;" vertex="1" parent="1">
          <mxGeometry x="890" y="-262" width="120" height="100" as="geometry" />
        </mxCell>
        <mxCell id="igJaX2ub25d0kCpzRuSo-89" value="Cria formulário de&lt;div&gt;&amp;nbsp;despesa na lista&lt;/div&gt;&lt;div&gt;&amp;nbsp;de tarefas do técnico&lt;/div&gt;" style="shape=parallelogram;perimeter=parallelogramPerimeter;whiteSpace=wrap;html=1;fixedSize=1;" vertex="1" parent="1">
          <mxGeometry x="950" y="-562" width="160" height="80" as="geometry" />
        </mxCell>
        <mxCell id="igJaX2ub25d0kCpzRuSo-90" value="&lt;div&gt;&lt;br&gt;&lt;/div&gt;Formulário de despesa&lt;div&gt;...&lt;/div&gt;" style="shape=note;whiteSpace=wrap;html=1;backgroundOutline=1;darkOpacity=0.05;" vertex="1" parent="1">
          <mxGeometry x="1180" y="-752" width="100" height="100" as="geometry" />
        </mxCell>
        <mxCell id="igJaX2ub25d0kCpzRuSo-91" style="edgeStyle=orthogonalEdgeStyle;rounded=0;orthogonalLoop=1;jettySize=auto;html=1;exitX=0.5;exitY=0;exitDx=0;exitDy=0;entryX=0;entryY=0.5;entryDx=0;entryDy=0;entryPerimeter=0;dashed=1;" edge="1" parent="1" source="igJaX2ub25d0kCpzRuSo-89" target="igJaX2ub25d0kCpzRuSo-90">
          <mxGeometry relative="1" as="geometry">
            <Array as="points">
              <mxPoint x="1040" y="-562" />
              <mxPoint x="1040" y="-702" />
            </Array>
          </mxGeometry>
        </mxCell>
        <mxCell id="igJaX2ub25d0kCpzRuSo-92" value="" style="edgeStyle=orthogonalEdgeStyle;rounded=0;orthogonalLoop=1;jettySize=auto;html=1;" edge="1" parent="1" source="igJaX2ub25d0kCpzRuSo-93" target="igJaX2ub25d0kCpzRuSo-95">
          <mxGeometry relative="1" as="geometry" />
        </mxCell>
        <mxCell id="igJaX2ub25d0kCpzRuSo-93" value="Registra Peças" style="shape=parallelogram;perimeter=parallelogramPerimeter;whiteSpace=wrap;html=1;fixedSize=1;" vertex="1" parent="1">
          <mxGeometry x="1090" y="-242" width="120" height="60" as="geometry" />
        </mxCell>
        <mxCell id="igJaX2ub25d0kCpzRuSo-94" value="" style="edgeStyle=orthogonalEdgeStyle;rounded=0;orthogonalLoop=1;jettySize=auto;html=1;" edge="1" parent="1" source="igJaX2ub25d0kCpzRuSo-95" target="igJaX2ub25d0kCpzRuSo-97">
          <mxGeometry relative="1" as="geometry" />
        </mxCell>
        <mxCell id="igJaX2ub25d0kCpzRuSo-95" value="Registra atividades complementares" style="shape=parallelogram;perimeter=parallelogramPerimeter;whiteSpace=wrap;html=1;fixedSize=1;" vertex="1" parent="1">
          <mxGeometry x="1250" y="-242" width="120" height="60" as="geometry" />
        </mxCell>
        <mxCell id="igJaX2ub25d0kCpzRuSo-96" value="" style="edgeStyle=orthogonalEdgeStyle;rounded=0;orthogonalLoop=1;jettySize=auto;html=1;" edge="1" parent="1" source="igJaX2ub25d0kCpzRuSo-97" target="igJaX2ub25d0kCpzRuSo-98">
          <mxGeometry relative="1" as="geometry" />
        </mxCell>
        <mxCell id="igJaX2ub25d0kCpzRuSo-97" value="Registra não conformidades" style="shape=parallelogram;perimeter=parallelogramPerimeter;whiteSpace=wrap;html=1;fixedSize=1;" vertex="1" parent="1">
          <mxGeometry x="1250" y="-132" width="120" height="60" as="geometry" />
        </mxCell>
        <mxCell id="igJaX2ub25d0kCpzRuSo-98" value="Registra horas&amp;nbsp;&lt;div&gt;extras&lt;/div&gt;" style="shape=parallelogram;perimeter=parallelogramPerimeter;whiteSpace=wrap;html=1;fixedSize=1;" vertex="1" parent="1">
          <mxGeometry x="1090" y="-132" width="120" height="60" as="geometry" />
        </mxCell>
        <mxCell id="igJaX2ub25d0kCpzRuSo-99" value="" style="edgeStyle=orthogonalEdgeStyle;rounded=0;orthogonalLoop=1;jettySize=auto;html=1;" edge="1" parent="1" source="igJaX2ub25d0kCpzRuSo-100" target="igJaX2ub25d0kCpzRuSo-102">
          <mxGeometry relative="1" as="geometry" />
        </mxCell>
        <mxCell id="igJaX2ub25d0kCpzRuSo-100" value="Finaliza OS" style="shape=parallelogram;perimeter=parallelogramPerimeter;whiteSpace=wrap;html=1;fixedSize=1;" vertex="1" parent="1">
          <mxGeometry x="-80" y="-12" width="120" height="60" as="geometry" />
        </mxCell>
        <mxCell id="igJaX2ub25d0kCpzRuSo-101" value="" style="edgeStyle=orthogonalEdgeStyle;rounded=0;orthogonalLoop=1;jettySize=auto;html=1;" edge="1" parent="1" source="igJaX2ub25d0kCpzRuSo-102" target="igJaX2ub25d0kCpzRuSo-104">
          <mxGeometry relative="1" as="geometry" />
        </mxCell>
        <mxCell id="igJaX2ub25d0kCpzRuSo-102" value="Registra assinatura e infos do cliente" style="whiteSpace=wrap;html=1;" vertex="1" parent="1">
          <mxGeometry x="110" y="-12" width="120" height="60" as="geometry" />
        </mxCell>
        <mxCell id="igJaX2ub25d0kCpzRuSo-103" value="" style="edgeStyle=orthogonalEdgeStyle;rounded=0;orthogonalLoop=1;jettySize=auto;html=1;" edge="1" parent="1" source="igJaX2ub25d0kCpzRuSo-104" target="igJaX2ub25d0kCpzRuSo-106">
          <mxGeometry relative="1" as="geometry" />
        </mxCell>
        <mxCell id="igJaX2ub25d0kCpzRuSo-104" value="Registra Fim da atividade&amp;nbsp;" style="shape=parallelogram;perimeter=parallelogramPerimeter;whiteSpace=wrap;html=1;fixedSize=1;" vertex="1" parent="1">
          <mxGeometry x="300" y="-12" width="120" height="60" as="geometry" />
        </mxCell>
        <mxCell id="igJaX2ub25d0kCpzRuSo-105" value="" style="edgeStyle=orthogonalEdgeStyle;rounded=0;orthogonalLoop=1;jettySize=auto;html=1;" edge="1" parent="1" source="igJaX2ub25d0kCpzRuSo-106" target="igJaX2ub25d0kCpzRuSo-110">
          <mxGeometry relative="1" as="geometry" />
        </mxCell>
        <mxCell id="igJaX2ub25d0kCpzRuSo-106" value="Registra Início retorno" style="shape=parallelogram;perimeter=parallelogramPerimeter;whiteSpace=wrap;html=1;fixedSize=1;" vertex="1" parent="1">
          <mxGeometry x="500" y="-12" width="120" height="60" as="geometry" />
        </mxCell>
        <mxCell id="igJaX2ub25d0kCpzRuSo-107" value="" style="edgeStyle=orthogonalEdgeStyle;rounded=0;orthogonalLoop=1;jettySize=auto;html=1;" edge="1" parent="1" source="igJaX2ub25d0kCpzRuSo-110" target="igJaX2ub25d0kCpzRuSo-113">
          <mxGeometry relative="1" as="geometry" />
        </mxCell>
        <mxCell id="igJaX2ub25d0kCpzRuSo-108" value="SIM" style="edgeLabel;html=1;align=center;verticalAlign=middle;resizable=0;points=[];" vertex="1" connectable="0" parent="igJaX2ub25d0kCpzRuSo-107">
          <mxGeometry x="0.0311" y="-1" relative="1" as="geometry">
            <mxPoint as="offset" />
          </mxGeometry>
        </mxCell>
        <mxCell id="igJaX2ub25d0kCpzRuSo-109" value="NÃO" style="edgeStyle=orthogonalEdgeStyle;rounded=0;orthogonalLoop=1;jettySize=auto;html=1;exitX=0.5;exitY=1;exitDx=0;exitDy=0;" edge="1" parent="1" source="igJaX2ub25d0kCpzRuSo-110" target="igJaX2ub25d0kCpzRuSo-119">
          <mxGeometry relative="1" as="geometry" />
        </mxCell>
        <mxCell id="igJaX2ub25d0kCpzRuSo-110" value="Descanso?" style="rhombus;whiteSpace=wrap;html=1;" vertex="1" parent="1">
          <mxGeometry x="710" y="-22" width="80" height="80" as="geometry" />
        </mxCell>
        <mxCell id="igJaX2ub25d0kCpzRuSo-111" value="" style="edgeStyle=orthogonalEdgeStyle;rounded=0;orthogonalLoop=1;jettySize=auto;html=1;" edge="1" parent="1" source="igJaX2ub25d0kCpzRuSo-113" target="igJaX2ub25d0kCpzRuSo-115">
          <mxGeometry relative="1" as="geometry" />
        </mxCell>
        <mxCell id="igJaX2ub25d0kCpzRuSo-112" value="Descanso" style="edgeLabel;html=1;align=center;verticalAlign=middle;resizable=0;points=[];" vertex="1" connectable="0" parent="igJaX2ub25d0kCpzRuSo-111">
          <mxGeometry x="-0.225" y="1" relative="1" as="geometry">
            <mxPoint as="offset" />
          </mxGeometry>
        </mxCell>
        <mxCell id="igJaX2ub25d0kCpzRuSo-113" value="Registra Início da atividade (Intervalo)" style="shape=parallelogram;perimeter=parallelogramPerimeter;whiteSpace=wrap;html=1;fixedSize=1;" vertex="1" parent="1">
          <mxGeometry x="1230" y="-12" width="140" height="60" as="geometry" />
        </mxCell>
        <mxCell id="igJaX2ub25d0kCpzRuSo-114" value="" style="edgeStyle=orthogonalEdgeStyle;rounded=0;orthogonalLoop=1;jettySize=auto;html=1;" edge="1" parent="1" source="igJaX2ub25d0kCpzRuSo-115" target="igJaX2ub25d0kCpzRuSo-117">
          <mxGeometry relative="1" as="geometry" />
        </mxCell>
        <mxCell id="igJaX2ub25d0kCpzRuSo-115" value="Registra Fim&amp;nbsp;&lt;div&gt;da atividade&lt;div&gt;&amp;nbsp;(Intervalo)&lt;/div&gt;&lt;/div&gt;" style="shape=parallelogram;perimeter=parallelogramPerimeter;whiteSpace=wrap;html=1;fixedSize=1;" vertex="1" parent="1">
          <mxGeometry x="1230" y="108" width="140" height="60" as="geometry" />
        </mxCell>
        <mxCell id="igJaX2ub25d0kCpzRuSo-116" style="edgeStyle=orthogonalEdgeStyle;rounded=0;orthogonalLoop=1;jettySize=auto;html=1;exitX=0;exitY=0.5;exitDx=0;exitDy=0;entryX=1;entryY=0.5;entryDx=0;entryDy=0;" edge="1" parent="1" source="igJaX2ub25d0kCpzRuSo-117" target="igJaX2ub25d0kCpzRuSo-119">
          <mxGeometry relative="1" as="geometry" />
        </mxCell>
        <mxCell id="igJaX2ub25d0kCpzRuSo-117" value="Resume retorno" style="whiteSpace=wrap;html=1;" vertex="1" parent="1">
          <mxGeometry x="1240" y="228" width="120" height="60" as="geometry" />
        </mxCell>
        <mxCell id="igJaX2ub25d0kCpzRuSo-118" style="edgeStyle=orthogonalEdgeStyle;rounded=0;orthogonalLoop=1;jettySize=auto;html=1;exitX=0;exitY=0.5;exitDx=0;exitDy=0;" edge="1" parent="1" source="igJaX2ub25d0kCpzRuSo-119" target="igJaX2ub25d0kCpzRuSo-123">
          <mxGeometry relative="1" as="geometry" />
        </mxCell>
        <mxCell id="igJaX2ub25d0kCpzRuSo-119" value="Registra Fim do Retorno" style="shape=parallelogram;perimeter=parallelogramPerimeter;whiteSpace=wrap;html=1;fixedSize=1;" vertex="1" parent="1">
          <mxGeometry x="690" y="228" width="120" height="60" as="geometry" />
        </mxCell>
        <mxCell id="igJaX2ub25d0kCpzRuSo-120" value="Dispara E-mail para o cliente" style="rounded=0;whiteSpace=wrap;html=1;" vertex="1" parent="1">
          <mxGeometry x="215" y="118" width="120" height="60" as="geometry" />
        </mxCell>
        <mxCell id="igJaX2ub25d0kCpzRuSo-121" style="edgeStyle=orthogonalEdgeStyle;rounded=0;orthogonalLoop=1;jettySize=auto;html=1;exitX=0.5;exitY=0;exitDx=0;exitDy=0;entryX=0.5;entryY=1;entryDx=0;entryDy=0;dashed=1;shape=link;" edge="1" parent="1" source="igJaX2ub25d0kCpzRuSo-123" target="igJaX2ub25d0kCpzRuSo-120">
          <mxGeometry relative="1" as="geometry" />
        </mxCell>
        <mxCell id="igJaX2ub25d0kCpzRuSo-122" style="edgeStyle=orthogonalEdgeStyle;rounded=0;orthogonalLoop=1;jettySize=auto;html=1;exitX=0;exitY=0.5;exitDx=0;exitDy=0;entryX=1;entryY=0.5;entryDx=0;entryDy=0;" edge="1" parent="1" source="igJaX2ub25d0kCpzRuSo-123" target="igJaX2ub25d0kCpzRuSo-127">
          <mxGeometry relative="1" as="geometry">
            <Array as="points">
              <mxPoint x="250" y="263" />
            </Array>
          </mxGeometry>
        </mxCell>
        <mxCell id="igJaX2ub25d0kCpzRuSo-123" value="" style="shape=message;html=1;html=1;outlineConnect=0;labelPosition=center;verticalLabelPosition=bottom;align=center;verticalAlign=top;" vertex="1" parent="1">
          <mxGeometry x="250" y="243" width="50" height="30" as="geometry" />
        </mxCell>
        <mxCell id="igJaX2ub25d0kCpzRuSo-124" value="&lt;div&gt;&lt;br&gt;&lt;/div&gt;Relatório&amp;nbsp;&lt;div&gt;de&lt;/div&gt;&lt;div&gt;&amp;nbsp;Atendimento&lt;/div&gt;" style="shape=note;whiteSpace=wrap;html=1;backgroundOutline=1;darkOpacity=0.05;" vertex="1" parent="1">
          <mxGeometry x="5" y="83" width="90" height="100" as="geometry" />
        </mxCell>
        <mxCell id="igJaX2ub25d0kCpzRuSo-125" style="edgeStyle=orthogonalEdgeStyle;rounded=0;orthogonalLoop=1;jettySize=auto;html=1;exitX=0;exitY=0.5;exitDx=0;exitDy=0;entryX=0;entryY=0;entryDx=90;entryDy=65;entryPerimeter=0;" edge="1" parent="1" source="igJaX2ub25d0kCpzRuSo-120" target="igJaX2ub25d0kCpzRuSo-124">
          <mxGeometry relative="1" as="geometry" />
        </mxCell>
        <mxCell id="igJaX2ub25d0kCpzRuSo-126" style="edgeStyle=orthogonalEdgeStyle;rounded=0;orthogonalLoop=1;jettySize=auto;html=1;exitX=0.5;exitY=1;exitDx=0;exitDy=0;entryX=0.5;entryY=0;entryDx=0;entryDy=0;" edge="1" parent="1" source="igJaX2ub25d0kCpzRuSo-127" target="igJaX2ub25d0kCpzRuSo-129">
          <mxGeometry relative="1" as="geometry" />
        </mxCell>
        <mxCell id="igJaX2ub25d0kCpzRuSo-127" value="Criado chamado filho com status de &quot;Aguarda análise crítica do chefe de oficina&quot;" style="rounded=0;whiteSpace=wrap;html=1;" vertex="1" parent="1">
          <mxGeometry x="-60" y="218" width="120" height="90" as="geometry" />
        </mxCell>
        <mxCell id="igJaX2ub25d0kCpzRuSo-128" style="edgeStyle=orthogonalEdgeStyle;rounded=0;orthogonalLoop=1;jettySize=auto;html=1;exitX=0;exitY=0.5;exitDx=0;exitDy=0;entryX=1;entryY=0.5;entryDx=0;entryDy=0;" edge="1" parent="1" source="igJaX2ub25d0kCpzRuSo-129" target="igJaX2ub25d0kCpzRuSo-131">
          <mxGeometry relative="1" as="geometry">
            <Array as="points">
              <mxPoint x="-160" y="378" />
              <mxPoint x="-160" y="28" />
            </Array>
          </mxGeometry>
        </mxCell>
        <mxCell id="igJaX2ub25d0kCpzRuSo-129" value="Chefe da oficina analisa&lt;div&gt;o chamado&lt;/div&gt;" style="shape=parallelogram;perimeter=parallelogramPerimeter;whiteSpace=wrap;html=1;fixedSize=1;" vertex="1" parent="1">
          <mxGeometry x="-70" y="348" width="130" height="60" as="geometry" />
        </mxCell>
        <mxCell id="igJaX2ub25d0kCpzRuSo-130" value="" style="edgeStyle=orthogonalEdgeStyle;rounded=0;orthogonalLoop=1;jettySize=auto;html=1;" edge="1" parent="1" source="igJaX2ub25d0kCpzRuSo-131" target="igJaX2ub25d0kCpzRuSo-133">
          <mxGeometry relative="1" as="geometry" />
        </mxCell>
        <mxCell id="igJaX2ub25d0kCpzRuSo-131" value="Criado um chamado filho com status de &quot;Aguarda Análise Crítica do Consultor&quot;" style="rounded=0;whiteSpace=wrap;html=1;" vertex="1" parent="1">
          <mxGeometry x="-450" y="-12" width="120" height="80" as="geometry" />
        </mxCell>
        <mxCell id="igJaX2ub25d0kCpzRuSo-132" style="edgeStyle=orthogonalEdgeStyle;rounded=0;orthogonalLoop=1;jettySize=auto;html=1;exitX=0;exitY=0.5;exitDx=0;exitDy=0;entryX=1;entryY=0.5;entryDx=0;entryDy=0;" edge="1" parent="1" source="igJaX2ub25d0kCpzRuSo-133" target="igJaX2ub25d0kCpzRuSo-135">
          <mxGeometry relative="1" as="geometry" />
        </mxCell>
        <mxCell id="igJaX2ub25d0kCpzRuSo-133" value="Consultor inicia a análise" style="shape=parallelogram;perimeter=parallelogramPerimeter;whiteSpace=wrap;html=1;fixedSize=1;rounded=0;" vertex="1" parent="1">
          <mxGeometry x="-780" y="-7" width="130" height="70" as="geometry" />
        </mxCell>
        <mxCell id="igJaX2ub25d0kCpzRuSo-134" value="" style="edgeStyle=orthogonalEdgeStyle;rounded=0;orthogonalLoop=1;jettySize=auto;html=1;" edge="1" parent="1" source="igJaX2ub25d0kCpzRuSo-135" target="igJaX2ub25d0kCpzRuSo-137">
          <mxGeometry relative="1" as="geometry" />
        </mxCell>
        <mxCell id="igJaX2ub25d0kCpzRuSo-135" value="Verifica&amp;nbsp;&lt;div&gt;Situação dos Lançamentos&lt;/div&gt;" style="shape=parallelogram;perimeter=parallelogramPerimeter;whiteSpace=wrap;html=1;fixedSize=1;" vertex="1" parent="1">
          <mxGeometry x="-1195" y="-6" width="135" height="70" as="geometry" />
        </mxCell>
        <mxCell id="igJaX2ub25d0kCpzRuSo-136" value="" style="edgeStyle=orthogonalEdgeStyle;rounded=0;orthogonalLoop=1;jettySize=auto;html=1;" edge="1" parent="1" source="igJaX2ub25d0kCpzRuSo-137" target="igJaX2ub25d0kCpzRuSo-139">
          <mxGeometry relative="1" as="geometry" />
        </mxCell>
        <mxCell id="igJaX2ub25d0kCpzRuSo-137" value="Verifica Serviços Requisitados" style="shape=parallelogram;perimeter=parallelogramPerimeter;whiteSpace=wrap;html=1;fixedSize=1;" vertex="1" parent="1">
          <mxGeometry x="-1195" y="131" width="135" height="70" as="geometry" />
        </mxCell>
        <mxCell id="igJaX2ub25d0kCpzRuSo-138" style="edgeStyle=orthogonalEdgeStyle;rounded=0;orthogonalLoop=1;jettySize=auto;html=1;exitX=1;exitY=0.5;exitDx=0;exitDy=0;entryX=0;entryY=0.5;entryDx=0;entryDy=0;" edge="1" parent="1" source="igJaX2ub25d0kCpzRuSo-139" target="igJaX2ub25d0kCpzRuSo-141">
          <mxGeometry relative="1" as="geometry">
            <Array as="points">
              <mxPoint x="-840" y="293" />
              <mxPoint x="-840" y="188" />
            </Array>
          </mxGeometry>
        </mxCell>
        <mxCell id="igJaX2ub25d0kCpzRuSo-139" value="Verifica se os&amp;nbsp;&lt;div&gt;lançamentos do CDT estão na OS&lt;/div&gt;" style="shape=parallelogram;perimeter=parallelogramPerimeter;whiteSpace=wrap;html=1;fixedSize=1;" vertex="1" parent="1">
          <mxGeometry x="-1200" y="258" width="145" height="70" as="geometry" />
        </mxCell>
        <mxCell id="igJaX2ub25d0kCpzRuSo-140" style="edgeStyle=orthogonalEdgeStyle;rounded=0;orthogonalLoop=1;jettySize=auto;html=1;exitX=1;exitY=0.5;exitDx=0;exitDy=0;entryX=0.5;entryY=0;entryDx=0;entryDy=0;" edge="1" parent="1" source="igJaX2ub25d0kCpzRuSo-141" target="igJaX2ub25d0kCpzRuSo-142">
          <mxGeometry relative="1" as="geometry">
            <Array as="points">
              <mxPoint x="-510" y="188" />
            </Array>
          </mxGeometry>
        </mxCell>
        <mxCell id="igJaX2ub25d0kCpzRuSo-141" value="Consultor&lt;span style=&quot;background-color: initial;&quot;&gt;&amp;nbsp;Finaliza&amp;nbsp;&lt;/span&gt;&lt;div&gt;&lt;div&gt;OS&lt;/div&gt;&lt;/div&gt;" style="shape=parallelogram;perimeter=parallelogramPerimeter;whiteSpace=wrap;html=1;fixedSize=1;" vertex="1" parent="1">
          <mxGeometry x="-780" y="158" width="150" height="60" as="geometry" />
        </mxCell>
        <mxCell id="igJaX2ub25d0kCpzRuSo-142" value="CHAMADO ENCERRADO" style="ellipse;whiteSpace=wrap;html=1;fillColor=#f8cecc;strokeColor=#b85450;" vertex="1" parent="1">
          <mxGeometry x="-570" y="273" width="120" height="80" as="geometry" />
        </mxCell>
        <mxCell id="igJaX2ub25d0kCpzRuSo-143" value="" style="rounded=0;whiteSpace=wrap;html=1;" vertex="1" parent="1">
          <mxGeometry x="-2090" y="-12" width="820" height="350" as="geometry" />
        </mxCell>
        <mxCell id="igJaX2ub25d0kCpzRuSo-144" value="DB" style="shape=cylinder3;whiteSpace=wrap;html=1;boundedLbl=1;backgroundOutline=1;size=15;" vertex="1" parent="1">
          <mxGeometry x="-1380" y="88" width="60" height="80" as="geometry" />
        </mxCell>
        <mxCell id="igJaX2ub25d0kCpzRuSo-145" style="edgeStyle=orthogonalEdgeStyle;rounded=0;orthogonalLoop=1;jettySize=auto;html=1;exitX=0;exitY=0;exitDx=0;exitDy=20;exitPerimeter=0;" edge="1" parent="1" source="igJaX2ub25d0kCpzRuSo-146" target="igJaX2ub25d0kCpzRuSo-148">
          <mxGeometry relative="1" as="geometry" />
        </mxCell>
        <mxCell id="igJaX2ub25d0kCpzRuSo-146" value="PROC_RETORNO1" style="shape=callout;whiteSpace=wrap;html=1;perimeter=calloutPerimeter;" vertex="1" parent="1">
          <mxGeometry x="-1410" y="27" width="120" height="70" as="geometry" />
        </mxCell>
        <mxCell id="igJaX2ub25d0kCpzRuSo-147" value="" style="edgeStyle=orthogonalEdgeStyle;rounded=0;orthogonalLoop=1;jettySize=auto;html=1;" edge="1" parent="1" source="igJaX2ub25d0kCpzRuSo-148" target="igJaX2ub25d0kCpzRuSo-150">
          <mxGeometry relative="1" as="geometry" />
        </mxCell>
        <mxCell id="igJaX2ub25d0kCpzRuSo-148" value="PROC_RETORNO_TIPOOS1" style="rounded=0;whiteSpace=wrap;html=1;" vertex="1" parent="1">
          <mxGeometry x="-1610" y="22" width="171" height="50" as="geometry" />
        </mxCell>
        <mxCell id="igJaX2ub25d0kCpzRuSo-149" value="" style="edgeStyle=orthogonalEdgeStyle;rounded=0;orthogonalLoop=1;jettySize=auto;html=1;" edge="1" parent="1" source="igJaX2ub25d0kCpzRuSo-150" target="igJaX2ub25d0kCpzRuSo-151">
          <mxGeometry relative="1" as="geometry" />
        </mxCell>
        <mxCell id="igJaX2ub25d0kCpzRuSo-150" value="PROC_RETORNO_TAREFAS" style="rounded=0;whiteSpace=wrap;html=1;" vertex="1" parent="1">
          <mxGeometry x="-1810" y="22" width="170" height="50" as="geometry" />
        </mxCell>
        <mxCell id="igJaX2ub25d0kCpzRuSo-151" value="PROC_RETORNO_TAREFAS_VALIDAS" style="rounded=0;whiteSpace=wrap;html=1;" vertex="1" parent="1">
          <mxGeometry x="-2070" y="22" width="240" height="50" as="geometry" />
        </mxCell>
        <mxCell id="igJaX2ub25d0kCpzRuSo-152" style="edgeStyle=orthogonalEdgeStyle;rounded=0;orthogonalLoop=1;jettySize=auto;html=1;exitX=0;exitY=0.5;exitDx=0;exitDy=0;entryX=1;entryY=0.5;entryDx=0;entryDy=0;" edge="1" parent="1" source="igJaX2ub25d0kCpzRuSo-156" target="igJaX2ub25d0kCpzRuSo-157">
          <mxGeometry relative="1" as="geometry" />
        </mxCell>
        <mxCell id="igJaX2ub25d0kCpzRuSo-153" value="ORÇADO" style="edgeLabel;html=1;align=center;verticalAlign=middle;resizable=0;points=[];" vertex="1" connectable="0" parent="igJaX2ub25d0kCpzRuSo-152">
          <mxGeometry x="-0.2982" y="1" relative="1" as="geometry">
            <mxPoint as="offset" />
          </mxGeometry>
        </mxCell>
        <mxCell id="igJaX2ub25d0kCpzRuSo-154" style="edgeStyle=orthogonalEdgeStyle;rounded=0;orthogonalLoop=1;jettySize=auto;html=1;exitX=1;exitY=0.5;exitDx=0;exitDy=0;" edge="1" parent="1" source="igJaX2ub25d0kCpzRuSo-156" target="igJaX2ub25d0kCpzRuSo-158">
          <mxGeometry relative="1" as="geometry" />
        </mxCell>
        <mxCell id="igJaX2ub25d0kCpzRuSo-155" value="REALIZADO" style="edgeLabel;html=1;align=center;verticalAlign=middle;resizable=0;points=[];" vertex="1" connectable="0" parent="igJaX2ub25d0kCpzRuSo-154">
          <mxGeometry x="-0.1309" y="1" relative="1" as="geometry">
            <mxPoint as="offset" />
          </mxGeometry>
        </mxCell>
        <mxCell id="igJaX2ub25d0kCpzRuSo-156" value="Tipo de Faturamento" style="rhombus;whiteSpace=wrap;html=1;" vertex="1" parent="1">
          <mxGeometry x="-1740" y="168" width="100" height="90" as="geometry" />
        </mxCell>
        <mxCell id="igJaX2ub25d0kCpzRuSo-157" value="Insere&amp;nbsp;&lt;div&gt;&quot;Manutenções do CDT&quot;&lt;/div&gt;" style="rounded=0;whiteSpace=wrap;html=1;" vertex="1" parent="1">
          <mxGeometry x="-1980" y="183" width="130" height="60" as="geometry" />
        </mxCell>
        <mxCell id="igJaX2ub25d0kCpzRuSo-158" value="Atualiza OS e insere&lt;div&gt;&quot;Manutenções do CDT&quot;&lt;/div&gt;" style="rounded=0;whiteSpace=wrap;html=1;" vertex="1" parent="1">
          <mxGeometry x="-1530" y="183" width="130" height="60" as="geometry" />
        </mxCell>
        <mxCell id="igJaX2ub25d0kCpzRuSo-159" value="JSON PAYLOAD" style="shape=note;whiteSpace=wrap;html=1;backgroundOutline=1;darkOpacity=0.05;" vertex="1" parent="1">
          <mxGeometry x="-1400" y="-412" width="80" height="100" as="geometry" />
        </mxCell>
        <mxCell id="igJaX2ub25d0kCpzRuSo-160" value="JSON PAYLOAD" style="shape=note;whiteSpace=wrap;html=1;backgroundOutline=1;darkOpacity=0.05;" vertex="1" parent="1">
          <mxGeometry x="-1225" y="-212" width="80" height="100" as="geometry" />
        </mxCell>
        <mxCell id="igJaX2ub25d0kCpzRuSo-161" value="JSON PAYLOAD" style="shape=note;whiteSpace=wrap;html=1;backgroundOutline=1;darkOpacity=0.05;" vertex="1" parent="1">
          <mxGeometry x="-1350" y="-342" width="80" height="100" as="geometry" />
        </mxCell>
        <mxCell id="igJaX2ub25d0kCpzRuSo-162" value="JSON PAYLOAD" style="shape=note;whiteSpace=wrap;html=1;backgroundOutline=1;darkOpacity=0.05;" vertex="1" parent="1">
          <mxGeometry x="-1280" y="-277" width="80" height="100" as="geometry" />
        </mxCell>
        <mxCell id="igJaX2ub25d0kCpzRuSo-163" value="" style="endArrow=none;dashed=1;html=1;dashPattern=1 3;strokeWidth=2;rounded=0;entryX=0.5;entryY=1;entryDx=0;entryDy=0;entryPerimeter=0;" edge="1" parent="1" target="igJaX2ub25d0kCpzRuSo-160">
          <mxGeometry width="50" height="50" relative="1" as="geometry">
            <mxPoint x="-1290" y="48" as="sourcePoint" />
            <mxPoint x="-1240" y="-2" as="targetPoint" />
            <Array as="points">
              <mxPoint x="-1220" y="-32" />
            </Array>
          </mxGeometry>
        </mxCell>
        <mxCell id="igJaX2ub25d0kCpzRuSo-164" value="JOB 185 Executado a casa 10min" style="edgeLabel;html=1;align=center;verticalAlign=middle;resizable=0;points=[];" vertex="1" connectable="0" parent="igJaX2ub25d0kCpzRuSo-163">
          <mxGeometry x="0.1956" relative="1" as="geometry">
            <mxPoint as="offset" />
          </mxGeometry>
        </mxCell>
        <mxCell id="igJaX2ub25d0kCpzRuSo-165" value="" style="endArrow=none;dashed=1;html=1;dashPattern=1 3;strokeWidth=2;rounded=0;" edge="1" parent="1" target="igJaX2ub25d0kCpzRuSo-162">
          <mxGeometry width="50" height="50" relative="1" as="geometry">
            <mxPoint x="-1480" y="22" as="sourcePoint" />
            <mxPoint x="-1430" y="-28" as="targetPoint" />
            <Array as="points">
              <mxPoint x="-1350" y="-82" />
            </Array>
          </mxGeometry>
        </mxCell>
        <mxCell id="igJaX2ub25d0kCpzRuSo-166" value="&lt;b style=&quot;background-color: rgb(0, 0, 0);&quot;&gt;&lt;font color=&quot;#ffffff&quot;&gt;consulta -&amp;gt; api/solicitacao/consultar&lt;/font&gt;&lt;/b&gt;" style="edgeLabel;html=1;align=center;verticalAlign=middle;resizable=0;points=[];" vertex="1" connectable="0" parent="igJaX2ub25d0kCpzRuSo-165">
          <mxGeometry x="-0.5627" y="2" relative="1" as="geometry">
            <mxPoint x="4" as="offset" />
          </mxGeometry>
        </mxCell>
        <mxCell id="igJaX2ub25d0kCpzRuSo-167" value="" style="endArrow=none;dashed=1;html=1;dashPattern=1 3;strokeWidth=2;rounded=0;exitX=0.5;exitY=0;exitDx=0;exitDy=0;entryX=0.653;entryY=0.459;entryDx=0;entryDy=0;entryPerimeter=0;" edge="1" parent="1" source="igJaX2ub25d0kCpzRuSo-150" target="igJaX2ub25d0kCpzRuSo-3">
          <mxGeometry width="50" height="50" relative="1" as="geometry">
            <mxPoint x="-1580" y="-112" as="sourcePoint" />
            <mxPoint x="-1530" y="-162" as="targetPoint" />
            <Array as="points">
              <mxPoint x="-1440" y="-142" />
            </Array>
          </mxGeometry>
        </mxCell>
        <mxCell id="igJaX2ub25d0kCpzRuSo-168" value="&lt;font style=&quot;background-color: rgb(0, 0, 0);&quot; color=&quot;#ffffff&quot;&gt;consulta -&amp;gt; /api/tarefa/consultabysolicitacao&lt;/font&gt;" style="edgeLabel;html=1;align=center;verticalAlign=middle;resizable=0;points=[];" vertex="1" connectable="0" parent="igJaX2ub25d0kCpzRuSo-167">
          <mxGeometry x="-0.6314" y="-1" relative="1" as="geometry">
            <mxPoint as="offset" />
          </mxGeometry>
        </mxCell>
        <mxCell id="igJaX2ub25d0kCpzRuSo-169" value="" style="endArrow=none;dashed=1;html=1;dashPattern=1 3;strokeWidth=2;rounded=0;exitX=0.53;exitY=0.01;exitDx=0;exitDy=0;exitPerimeter=0;entryX=0;entryY=1;entryDx=0;entryDy=0;entryPerimeter=0;" edge="1" parent="1" source="igJaX2ub25d0kCpzRuSo-151" target="igJaX2ub25d0kCpzRuSo-159">
          <mxGeometry width="50" height="50" relative="1" as="geometry">
            <mxPoint x="-1580" y="-192" as="sourcePoint" />
            <mxPoint x="-1530" y="-242" as="targetPoint" />
            <Array as="points">
              <mxPoint x="-1910" y="-12" />
              <mxPoint x="-1870" y="-52" />
              <mxPoint x="-1660" y="-172" />
            </Array>
          </mxGeometry>
        </mxCell>
        <mxCell id="igJaX2ub25d0kCpzRuSo-170" value="&lt;font style=&quot;background-color: rgb(0, 0, 0);&quot; color=&quot;#ffffff&quot;&gt;consulta -&amp;gt; /api/tarefa/externa/&amp;lt;NRO_TRF&amp;gt;&lt;/font&gt;" style="edgeLabel;html=1;align=center;verticalAlign=middle;resizable=0;points=[];" vertex="1" connectable="0" parent="igJaX2ub25d0kCpzRuSo-169">
          <mxGeometry x="-0.7615" y="2" relative="1" as="geometry">
            <mxPoint y="17" as="offset" />
          </mxGeometry>
        </mxCell>
        <mxCell id="igJaX2ub25d0kCpzRuSo-171" value="" style="endArrow=none;dashed=1;html=1;dashPattern=1 3;strokeWidth=2;rounded=0;exitX=0;exitY=0;exitDx=80;exitDy=30;exitPerimeter=0;" edge="1" parent="1" source="igJaX2ub25d0kCpzRuSo-159" target="igJaX2ub25d0kCpzRuSo-30">
          <mxGeometry width="50" height="50" relative="1" as="geometry">
            <mxPoint x="-1130" y="-292" as="sourcePoint" />
            <mxPoint x="-1080" y="-342" as="targetPoint" />
            <Array as="points">
              <mxPoint x="-1120" y="-372" />
              <mxPoint x="-940" y="-362" />
              <mxPoint x="-850" y="-462" />
            </Array>
          </mxGeometry>
        </mxCell>
        <mxCell id="igJaX2ub25d0kCpzRuSo-172" value="" style="endArrow=none;dashed=1;html=1;dashPattern=1 3;strokeWidth=2;rounded=0;entryX=0.437;entryY=0.895;entryDx=0;entryDy=0;entryPerimeter=0;exitX=0;exitY=0;exitDx=80;exitDy=30;exitPerimeter=0;" edge="1" parent="1" source="igJaX2ub25d0kCpzRuSo-161" target="igJaX2ub25d0kCpzRuSo-30">
          <mxGeometry width="50" height="50" relative="1" as="geometry">
            <mxPoint x="-1280" y="-326" as="sourcePoint" />
            <mxPoint x="-950" y="-302" as="targetPoint" />
            <Array as="points">
              <mxPoint x="-940" y="-342" />
              <mxPoint x="-840" y="-452" />
            </Array>
          </mxGeometry>
        </mxCell>
        <mxCell id="igJaX2ub25d0kCpzRuSo-173" value="" style="endArrow=none;dashed=1;html=1;dashPattern=1 3;strokeWidth=2;rounded=0;exitX=0;exitY=0;exitDx=80;exitDy=30;exitPerimeter=0;" edge="1" parent="1" source="igJaX2ub25d0kCpzRuSo-162">
          <mxGeometry width="50" height="50" relative="1" as="geometry">
            <mxPoint x="-1200" y="-262" as="sourcePoint" />
            <mxPoint x="-750" y="-572" as="targetPoint" />
            <Array as="points">
              <mxPoint x="-940" y="-322" />
              <mxPoint x="-830" y="-442" />
            </Array>
          </mxGeometry>
        </mxCell>
        <mxCell id="igJaX2ub25d0kCpzRuSo-174" value="DB" style="shape=cylinder3;whiteSpace=wrap;html=1;boundedLbl=1;backgroundOutline=1;size=15;" vertex="1" parent="1">
          <mxGeometry x="-1340" y="-554" width="60" height="80" as="geometry" />
        </mxCell>
        <mxCell id="igJaX2ub25d0kCpzRuSo-175" value="" style="endArrow=none;dashed=1;html=1;dashPattern=1 3;strokeWidth=2;rounded=0;exitX=0;exitY=0;exitDx=80;exitDy=30;exitPerimeter=0;entryX=0.55;entryY=0.95;entryDx=0;entryDy=0;entryPerimeter=0;" edge="1" parent="1" source="igJaX2ub25d0kCpzRuSo-160" target="igJaX2ub25d0kCpzRuSo-30">
          <mxGeometry width="50" height="50" relative="1" as="geometry">
            <mxPoint x="-1160" y="-196" as="sourcePoint" />
            <mxPoint x="-940" y="-292" as="targetPoint" />
            <Array as="points">
              <mxPoint x="-940" y="-302" />
              <mxPoint x="-830" y="-422" />
            </Array>
          </mxGeometry>
        </mxCell>
        <mxCell id="igJaX2ub25d0kCpzRuSo-176" value="provavelmente executa PROC_INSERT_LS" style="shape=callout;whiteSpace=wrap;html=1;perimeter=calloutPerimeter;" vertex="1" parent="1">
          <mxGeometry x="-1380" y="-634" width="140" height="92" as="geometry" />
        </mxCell>
      </root>
    </mxGraphModel>
  </diagram>
</mxfile>
